<svg width="36" height="37" viewBox="0 0 36 37" fill="none" xmlns="http://www.w3.org/2000/svg">
<path d="M33.8906 23.596V11.409L35.4154 10.6499C35.773 10.4719 35.9994 10.1071 36 9.70769C36.0007 9.30824 35.7756 8.94275 35.4185 8.76355L18.4732 0.257115C18.1755 0.107654 17.8245 0.107654 17.5268 0.257115L0.581485 8.76355C0.224509 8.94275 -0.000631481 9.30831 1.33052e-06 9.70769C0.000634142 10.1071 0.22704 10.4719 0.584578 10.6499L6.3985 13.5443V22.3601C6.3985 22.6805 6.54411 22.9834 6.79435 23.1836C9.96277 25.7179 13.9549 27.1137 18.0352 27.1137C22.1155 27.1137 26.1076 25.7179 29.276 23.1836C29.5263 22.9834 29.6719 22.6805 29.6719 22.3601V13.5093L31.7813 12.4591V23.596C30.5537 24.0313 29.6719 25.2035 29.6719 26.5782C29.6719 27.3879 29.978 28.1271 30.4801 28.6872C29.978 29.2474 29.6719 29.9866 29.6719 30.7963V35.0846C29.6719 35.667 30.1441 36.1392 30.7266 36.1392H34.9453C35.5278 36.1392 36 35.667 36 35.0846V30.7963C36 29.9866 35.6939 29.2474 35.1918 28.6872C35.6939 28.1271 36 27.3879 36 26.5782C36 25.2035 35.1182 24.0313 33.8906 23.596ZM27.5625 21.843C21.9638 26.0339 14.1066 26.0339 8.50787 21.843V14.5945L17.5299 19.0861C17.678 19.1597 17.839 19.1966 18 19.1966C18.1611 19.1966 18.3221 19.1597 18.4701 19.0861L27.5625 14.5595V21.843ZM18 16.9641C17.2428 16.5871 3.90395 9.94643 3.4131 9.70207L18 2.37951L32.587 9.70207L18 16.9641ZM33.8906 34.0301H31.7813V30.7963C31.7813 30.2148 32.2544 29.7418 32.8359 29.7418C33.4175 29.7418 33.8906 30.2148 33.8906 30.7963V34.0301ZM32.8359 27.6327C32.2544 27.6327 31.7813 27.1597 31.7813 26.5782C31.7813 25.9967 32.2544 25.5237 32.8359 25.5237C33.4175 25.5237 33.8906 25.9967 33.8906 26.5782C33.8906 27.1597 33.4175 27.6327 32.8359 27.6327Z" fill="#101928"/>
<path d="M18 6.54199C16.2553 6.54199 14.8359 7.96105 14.8359 9.7053C14.8359 11.4495 16.2553 12.8686 18 12.8686C19.7446 12.8686 21.164 11.4495 21.164 9.7053C21.164 7.96105 19.7446 6.54199 18 6.54199ZM18 10.7597C17.4184 10.7597 16.9453 10.2867 16.9453 9.7053C16.9453 9.12388 17.4184 8.65086 18 8.65086C18.5815 8.65086 19.0547 9.12388 19.0547 9.7053C19.0547 10.2867 18.5815 10.7597 18 10.7597Z" fill="#101928"/>
</svg>
