<svg width="36" height="37" viewBox="0 0 36 37" fill="none" xmlns="http://www.w3.org/2000/svg">
<path d="M32.034 28.4896C33.1689 27.5281 33.8906 26.0988 33.8906 24.5045C33.8906 21.6162 31.525 19.2664 28.6172 19.2664C26.0705 19.2664 23.9399 21.0689 23.4499 23.4569H19.0547V17.1711H24.3984C24.9809 17.1711 25.4531 16.7021 25.4531 16.1235C25.4531 13.3064 23.83 10.8557 21.4559 9.62785C22.6761 8.60523 23.3438 7.16985 23.3438 5.6473C23.3438 2.75461 20.9199 0.339355 18 0.339355C15.0879 0.339355 12.6562 2.74679 12.6562 5.6473C12.6562 7.16671 13.3214 8.60313 14.5441 9.62785C12.17 10.8557 10.5469 13.3064 10.5469 16.1235C10.5469 16.7021 11.0191 17.1711 11.6016 17.1711H16.9453V23.4569H12.5501C12.0602 21.0689 9.92953 19.2664 7.38281 19.2664C4.47504 19.2664 2.10938 21.6162 2.10938 24.5045C2.10938 26.0988 2.83106 27.5281 3.96598 28.4896C1.61072 29.7279 0 32.204 0 35.0505C0 35.6291 0.472219 36.0982 1.05469 36.0982H13.7109C14.2934 36.0982 14.7656 35.6291 14.7656 35.0505C14.7656 32.204 13.1549 29.7279 10.7996 28.4896C11.6792 27.7444 12.3108 26.7186 12.5501 25.5521C13.0287 25.5521 22.9714 25.5521 23.4499 25.5521C23.6892 26.7186 24.3207 27.7444 25.2004 28.4896C22.8451 29.7279 21.2344 32.204 21.2344 35.0505C21.2344 35.6291 21.7066 36.0982 22.2891 36.0982H34.9453C35.5278 36.0982 36 35.6291 36 35.0505C36 32.204 34.3893 29.7279 32.034 28.4896ZM7.38281 21.3616C9.12748 21.3616 10.5469 22.7715 10.5469 24.5045C10.5469 26.2375 9.12748 27.6474 7.38281 27.6474C5.63815 27.6474 4.21875 26.2375 4.21875 24.5045C4.21875 22.7715 5.63815 21.3616 7.38281 21.3616ZM12.5531 34.0029H2.21252C2.69712 31.5761 4.83124 29.7426 7.38281 29.7426C9.93438 29.7426 12.0686 31.5761 12.5531 34.0029ZM18 2.4346C19.7532 2.4346 21.2344 3.90581 21.2344 5.6473C21.2344 7.35095 19.7532 8.79017 18 8.79017C16.2468 8.79017 14.7656 7.35095 14.7656 5.6473C14.7656 3.90581 16.2468 2.4346 18 2.4346ZM12.7636 15.0759C13.2602 12.688 15.4194 10.8854 18 10.8854C20.5806 10.8854 22.7398 12.688 23.2364 15.0759H12.7636ZM28.6172 21.3616C30.3619 21.3616 31.7812 22.7715 31.7812 24.5045C31.7812 26.2375 30.3619 27.6474 28.6172 27.6474C26.8725 27.6474 25.4531 26.2375 25.4531 24.5045C25.4531 22.7715 26.8725 21.3616 28.6172 21.3616ZM23.4469 34.0029C23.9315 31.5761 26.0656 29.7426 28.6172 29.7426C31.1688 29.7426 33.303 31.5761 33.7875 34.0029H23.4469Z" fill="#101928"/>
</svg>
