<svg width="36" height="29" viewBox="0 0 36 29" fill="none" xmlns="http://www.w3.org/2000/svg">
<path d="M0.518 3.72358V3.72315C0.518 2.06024 1.89082 0.687988 3.6 0.687988H32.4C34.1125 0.687988 35.5 2.06348 35.5 3.72315V24.9341C35.5 26.5938 34.1125 27.9693 32.4 27.9693H3.6C1.88761 27.9693 0.500114 26.5939 0.5 24.9343C0.5 24.9343 0.5 24.9342 0.5 24.9341L0.518 3.72358ZM32.6615 7.68446L32.9 7.53811V7.25832V3.72315V2.82962L32.1385 3.29701L18 11.9744L3.86154 3.29701L3.1 2.82962V3.72315V7.25832V7.53811L3.33846 7.68446L17.7385 16.5224L18 16.6829L18.2615 16.5224L32.6615 7.68446Z" fill="white" stroke="#101928"/>
</svg>
