<svg width="123" height="44" viewBox="0 0 123 44" fill="none" xmlns="http://www.w3.org/2000/svg">
<path d="M2.24 10.08H20.02V15.12H8.645V19.81H19.285V24.85H8.645V29.96H20.02V35H2.24V10.08ZM48.598 10.08V35H42.858L42.823 23.59L38.098 35H33.933L29.173 23.73V35H23.468V10.08H28.613L36.068 27.09L43.488 10.08H48.598ZM53.1677 10.08H65.0327C67.8794 10.08 70.0844 10.7683 71.6477 12.145C73.2111 13.4983 73.9927 15.3417 73.9927 17.675C73.9927 19.985 73.1994 21.8283 71.6127 23.205C70.0261 24.5817 67.8327 25.27 65.0327 25.27H59.7477V35H53.1677V10.08ZM64.1577 20.37C66.6311 20.37 67.8677 19.495 67.8677 17.745C67.8677 16.8583 67.5644 16.1933 66.9577 15.75C66.3744 15.2833 65.4411 15.05 64.1577 15.05H59.7477V20.37H64.1577ZM89.7269 25.48V35H83.1119V25.445L72.6469 10.08H80.0669L86.3669 20.02L92.7719 10.08H100.262L89.7269 25.48ZM121.83 35H114.865L111.645 26.705C111.271 25.7717 110.396 25.305 109.02 25.305H106.64V35H100.165V10.08H111.75C114.76 10.08 117.023 10.7333 118.54 12.04C120.056 13.3233 120.815 15.1667 120.815 17.57C120.815 19.25 120.36 20.7083 119.45 21.945C118.563 23.1583 117.303 24.0217 115.67 24.535C116.37 24.675 117 25.0017 117.56 25.515C118.12 26.0283 118.563 26.7167 118.89 27.58L121.83 35ZM110.7 20.405C112.1 20.405 113.115 20.195 113.745 19.775C114.375 19.3317 114.69 18.655 114.69 17.745C114.69 16.7883 114.375 16.1 113.745 15.68C113.138 15.26 112.123 15.05 110.7 15.05H106.57V20.405H110.7Z" fill="#101928"/>
</svg>
