<svg width="34" height="34" viewBox="0 0 34 34" fill="none" xmlns="http://www.w3.org/2000/svg">
<path fill-rule="evenodd" clip-rule="evenodd" d="M1.83325 0.885986H31.4046C32.4175 0.885741 33.2389 1.68164 33.2394 2.66341V31.3343V31.335C33.2391 32.3173 32.4177 33.1135 31.4046 33.1132H22.2528V20.7279H26.427L27.0524 15.8798H22.2528V12.792C22.2528 11.3916 22.6415 10.4373 24.6489 10.4373H27.1931V6.11284C26.7504 6.05394 25.2318 5.92223 23.4647 5.92223C19.7751 5.92223 17.2501 8.17428 17.2501 12.3118V15.8798H13.0915V20.7279H17.2501V33.1132H1.83477C0.821906 33.1135 0.000507369 32.3176 5.86873e-08 31.3358V2.66489C-0.000253421 1.68286 0.820638 0.886478 1.83325 0.885986Z" fill="white"/>
</svg>
