<svg width="1440" height="571" viewBox="0 0 1440 571" fill="none" xmlns="http://www.w3.org/2000/svg">
<g clip-path="url(#clip0)">
<g opacity="0.5">
<g opacity="0.8">
<rect width="10.1303" height="2.56119" transform="matrix(0.995773 0.0918472 -0.0827 0.996574 580.356 428.738)" fill="#EB5757"/>
<rect width="10.1431" height="2.55829" transform="matrix(0.983156 -0.182767 0.164958 0.986301 610.562 430.145)" fill="#EB5757"/>
<rect width="10.1919" height="2.54708" transform="matrix(0.933624 -0.358256 0.326333 0.945255 640.964 431.101)" fill="#EB5757"/>
<rect width="10.2662" height="2.52983" transform="matrix(0.854202 -0.519942 0.48032 0.877093 671.523 432.039)" fill="#EB5757"/>
<rect width="10.3567" height="2.5085" transform="matrix(0.748986 -0.662586 0.622737 0.782431 702.234 432.929)" fill="#EB5757"/>
<rect width="10.4521" height="2.48561" transform="matrix(0.622737 -0.782431 0.748986 0.662586 733.087 433.745)" fill="#EB5757"/>
<rect width="10.541" height="2.46389" transform="matrix(0.480319 -0.877094 0.854202 0.519941 764.065 434.462)" fill="#EB5757"/>
<rect width="10.6129" height="2.44605" transform="matrix(0.326332 -0.945255 0.933624 0.358255 795.154 435.057)" fill="#EB5757"/>
<rect width="10.6595" height="2.43434" transform="matrix(0.164958 -0.986301 0.983156 0.182766 826.331 435.514)" fill="#EB5757"/>
<rect x="857.521" y="435.659" width="10.4495" height="2.47788" transform="rotate(-90 857.521 435.659)" fill="#EB5757"/>
<rect x="580" y="453.423" width="10.4071" height="2.08989" fill="#EB5757"/>
<rect width="10.1431" height="2.1319" transform="matrix(0.983156 -0.182767 0.164958 0.986301 610.511 454.515)" fill="#EB5757"/>
<rect width="10.1919" height="2.12257" transform="matrix(0.933624 -0.358256 0.326333 0.945255 640.946 455.462)" fill="#EB5757"/>
<rect width="10.2662" height="2.10819" transform="matrix(0.854202 -0.519942 0.48032 0.877093 671.538 456.384)" fill="#EB5757"/>
<rect width="10.3567" height="2.09042" transform="matrix(0.748986 -0.662586 0.622737 0.782431 702.278 457.253)" fill="#EB5757"/>
<rect width="10.4521" height="2.07134" transform="matrix(0.622737 -0.782431 0.748986 0.662586 733.155 458.042)" fill="#EB5757"/>
<rect width="10.541" height="2.05325" transform="matrix(0.480319 -0.877094 0.854202 0.519941 764.155 458.729)" fill="#EB5757"/>
<rect width="10.6129" height="2.03838" transform="matrix(0.326332 -0.945255 0.933624 0.358255 795.259 459.29)" fill="#EB5757"/>
<rect width="10.6595" height="2.02861" transform="matrix(0.164958 -0.986301 0.983156 0.182766 826.443 459.711)" fill="#EB5757"/>
<rect x="857.521" y="460.215" width="10.9719" height="1.9823" transform="rotate(-90 857.521 460.215)" fill="#EB5757"/>
<rect x="580" y="476.934" width="10.4071" height="2.08989" fill="#EB5757"/>
<rect width="10.1431" height="2.1319" transform="matrix(0.983156 -0.182767 0.164958 0.986301 610.511 478.002)" fill="#EB5757"/>
<rect width="10.1919" height="2.12257" transform="matrix(0.933624 -0.358256 0.326333 0.945255 640.946 478.948)" fill="#EB5757"/>
<rect width="10.2662" height="2.10819" transform="matrix(0.854202 -0.519942 0.48032 0.877093 671.538 479.87)" fill="#EB5757"/>
<rect width="10.3567" height="2.09042" transform="matrix(0.748986 -0.662586 0.622737 0.782431 702.278 480.74)" fill="#EB5757"/>
<rect width="10.4521" height="2.07134" transform="matrix(0.622737 -0.782431 0.748986 0.662586 733.155 481.529)" fill="#EB5757"/>
<rect width="10.541" height="2.05325" transform="matrix(0.480319 -0.877094 0.854202 0.519941 764.155 482.215)" fill="#EB5757"/>
<rect width="10.6129" height="2.03838" transform="matrix(0.326332 -0.945255 0.933624 0.358255 795.259 482.777)" fill="#EB5757"/>
<rect width="10.6595" height="2.02861" transform="matrix(0.164958 -0.986301 0.983156 0.182766 826.443 483.198)" fill="#EB5757"/>
<rect x="857.521" y="483.204" width="10.4495" height="1.9823" transform="rotate(-90 857.521 483.204)" fill="#EB5757"/>
<rect x="580" y="500.445" width="10.4071" height="2.08989" fill="#EB5757"/>
<rect width="10.1431" height="2.1319" transform="matrix(0.983156 -0.182767 0.164958 0.986301 610.511 501.488)" fill="#EB5757"/>
<rect width="10.1919" height="2.12257" transform="matrix(0.933624 -0.358256 0.326333 0.945255 640.946 502.435)" fill="#EB5757"/>
<rect width="10.2662" height="2.10819" transform="matrix(0.854202 -0.519942 0.48032 0.877093 671.538 503.357)" fill="#EB5757"/>
<rect width="10.3567" height="2.09042" transform="matrix(0.748986 -0.662586 0.622737 0.782431 702.278 504.226)" fill="#EB5757"/>
<rect width="10.4521" height="2.07134" transform="matrix(0.622737 -0.782431 0.748986 0.662586 733.155 505.015)" fill="#EB5757"/>
<rect width="10.541" height="2.05325" transform="matrix(0.480319 -0.877094 0.854202 0.519941 764.155 505.702)" fill="#EB5757"/>
<rect width="10.6129" height="2.03838" transform="matrix(0.326332 -0.945255 0.933624 0.358255 795.259 506.264)" fill="#EB5757"/>
<rect width="10.6595" height="2.02861" transform="matrix(0.164958 -0.986301 0.983156 0.182766 826.443 506.684)" fill="#EB5757"/>
<rect x="857.521" y="506.715" width="10.4495" height="1.9823" transform="rotate(-90 857.521 506.715)" fill="#EB5757"/>
<rect x="580" y="523.957" width="10.4071" height="2.08989" fill="#EB5757"/>
<rect width="10.1431" height="2.1319" transform="matrix(0.983156 -0.182767 0.164958 0.986301 610.511 524.975)" fill="#EB5757"/>
<rect width="10.1919" height="2.12257" transform="matrix(0.933624 -0.358256 0.326333 0.945255 640.946 525.922)" fill="#EB5757"/>
<rect width="10.2662" height="2.10819" transform="matrix(0.854202 -0.519942 0.48032 0.877093 671.538 526.844)" fill="#EB5757"/>
<rect width="10.3567" height="2.09042" transform="matrix(0.748986 -0.662586 0.622737 0.782431 702.278 527.713)" fill="#EB5757"/>
<rect width="10.4521" height="2.07134" transform="matrix(0.622737 -0.782431 0.748986 0.662586 733.155 528.502)" fill="#EB5757"/>
<rect width="10.541" height="2.05325" transform="matrix(0.480319 -0.877094 0.854202 0.519941 764.155 529.188)" fill="#EB5757"/>
<rect width="10.6129" height="2.03838" transform="matrix(0.326332 -0.945255 0.933624 0.358255 795.259 529.75)" fill="#EB5757"/>
<rect width="10.6595" height="2.02861" transform="matrix(0.164958 -0.986301 0.983156 0.182766 826.443 530.17)" fill="#EB5757"/>
<rect x="857.521" y="530.226" width="10.4495" height="1.9823" transform="rotate(-90 857.521 530.226)" fill="#EB5757"/>
<rect x="580" y="547.468" width="10.4071" height="2.61237" fill="#EB5757"/>
<rect width="10.1431" height="2.55829" transform="matrix(0.983156 -0.182767 0.164958 0.986301 610.475 548.464)" fill="#EB5757"/>
<rect width="10.1919" height="2.54708" transform="matrix(0.933624 -0.358256 0.326333 0.945255 640.878 549.421)" fill="#EB5757"/>
<rect width="10.2662" height="2.52983" transform="matrix(0.854202 -0.519942 0.48032 0.877093 671.437 550.359)" fill="#EB5757"/>
<rect width="10.3567" height="2.5085" transform="matrix(0.748986 -0.662586 0.622737 0.782431 702.147 551.249)" fill="#EB5757"/>
<rect width="10.4521" height="2.48561" transform="matrix(0.622737 -0.782431 0.748986 0.662586 733 552.065)" fill="#EB5757"/>
<rect width="10.541" height="2.46389" transform="matrix(0.480319 -0.877094 0.854202 0.519941 763.98 552.781)" fill="#EB5757"/>
<rect width="10.6129" height="2.44605" transform="matrix(0.326332 -0.945255 0.933624 0.358255 795.068 553.377)" fill="#EB5757"/>
<rect width="10.6595" height="2.43434" transform="matrix(0.164958 -0.986301 0.983156 0.182766 826.244 553.833)" fill="#EB5757"/>
<rect x="857.521" y="554.26" width="10.9719" height="2.47788" transform="rotate(-90 857.521 554.26)" fill="#EB5757"/>
<rect width="10.1431" height="2.1319" transform="matrix(0.983156 -0.182767 0.164958 0.986301 610.511 572.375)" fill="#EB5757"/>
<rect width="10.1919" height="2.12257" transform="matrix(0.933624 -0.358256 0.326333 0.945255 640.946 573.322)" fill="#EB5757"/>
<rect width="10.2662" height="2.10819" transform="matrix(0.854202 -0.519942 0.48032 0.877093 671.538 574.244)" fill="#EB5757"/>
<rect width="10.3567" height="2.09042" transform="matrix(0.748986 -0.662586 0.622737 0.782431 702.278 575.112)" fill="#EB5757"/>
<rect width="10.4521" height="2.07134" transform="matrix(0.622737 -0.782431 0.748986 0.662586 733.155 575.902)" fill="#EB5757"/>
<rect width="10.541" height="2.05325" transform="matrix(0.480319 -0.877094 0.854202 0.519941 764.155 576.588)" fill="#EB5757"/>
<rect width="10.6129" height="2.03838" transform="matrix(0.326332 -0.945255 0.933624 0.358255 795.259 577.15)" fill="#EB5757"/>
<rect width="10.6595" height="2.02861" transform="matrix(0.164958 -0.986301 0.983156 0.182766 826.443 577.571)" fill="#EB5757"/>
<rect x="857.521" y="577.771" width="10.4495" height="1.9823" transform="rotate(-90 857.521 577.771)" fill="#EB5757"/>
</g>
</g>
<path opacity="0.1" d="M-13.5338 197.738C-20.2754 188.483 -18.282 175.259 -7.75108 170.765C6.36684 164.741 21.8802 162.314 37.3728 163.87C59.799 166.121 80.6089 176.558 95.8248 193.186C111.041 209.814 119.595 231.466 119.853 254.003C120.112 276.54 112.055 298.383 97.224 315.354C82.393 332.326 61.8276 343.237 39.4589 346.002C17.0902 348.766 -5.51285 343.191 -24.0297 330.341C-42.5466 317.49 -55.6785 298.267 -60.9154 276.345C-64.5331 261.201 -64.2077 245.502 -60.1297 230.704C-57.0879 219.666 -44.25 215.918 -34.1755 221.359V221.359C-24.101 226.799 -20.8542 239.532 -21.792 250.943C-22.2231 256.187 -21.8301 261.509 -20.5874 266.711C-17.7199 278.715 -10.5295 289.241 -0.390469 296.277C9.74854 303.313 22.1249 306.366 34.373 304.852C46.6211 303.338 57.8818 297.364 66.0026 288.071C74.1234 278.778 78.5347 266.818 78.3934 254.478C78.252 242.137 73.5679 230.282 65.2364 221.177C56.9049 212.073 45.5103 206.358 33.2308 205.125C27.9089 204.591 22.5825 204.914 17.4432 206.044C6.26069 208.503 -6.79227 206.992 -13.5338 197.738V197.738Z" fill="#EB5757"/>
<path opacity="0.1" d="M120.139 140.699C129.562 128.598 147.206 126.297 157.686 137.496C174.56 155.525 187.547 176.965 195.699 200.491C206.896 232.805 208.493 267.67 200.296 300.872C192.1 334.074 174.46 364.191 149.511 387.581C124.562 410.971 93.3713 426.633 59.7102 432.673C26.0491 438.713 -8.641 434.873 -40.1659 421.616C-71.6909 408.36 -98.7006 386.255 -117.93 357.974C-137.159 329.694 -147.784 296.448 -148.52 262.257C-149.056 237.365 -144.333 212.747 -134.781 189.975C-128.848 175.832 -111.505 171.854 -98.4621 179.924V179.924C-85.4196 187.994 -81.7399 205.077 -86.6437 219.609C-91.1247 232.889 -93.2965 246.91 -92.9918 261.062C-92.4867 284.524 -85.1956 307.338 -72.0002 326.745C-58.8047 346.152 -40.2699 361.321 -18.6367 370.418C2.99645 379.515 26.8017 382.15 49.9008 378.005C72.9999 373.86 94.4037 363.113 111.524 347.062C128.645 331.011 140.75 310.344 146.374 287.56C151.999 264.776 150.903 240.851 143.22 218.676C138.585 205.302 131.674 192.91 122.855 182.017C113.205 170.097 110.715 152.8 120.139 140.699V140.699Z" fill="#F5CD33"/>
</g>
<defs>
<clipPath id="clip0">
<rect width="1440" height="571" fill="white"/>
</clipPath>
</defs>
</svg>
