<svg width="37" height="36" viewBox="0 0 37 36" fill="none" xmlns="http://www.w3.org/2000/svg">
<path fill-rule="evenodd" clip-rule="evenodd" d="M36.1256 10.5788C36.0379 8.66279 35.7336 7.3543 35.2886 6.20952C34.8367 5.00843 34.1279 3.9205 33.212 3.02126C32.3129 2.10555 31.2245 1.39665 30.0233 0.944557C28.878 0.499882 27.5696 0.195833 25.6532 0.108765C23.7333 0.0208742 23.1199 0 18.2307 0C13.3415 0 12.728 0.0208742 10.8081 0.108216C8.89177 0.195833 7.58334 0.500156 6.43809 0.945106C5.2368 1.39692 4.14869 2.10555 3.24931 3.02126C2.33344 3.92023 1.62442 5.00816 1.17225 6.20925C0.727504 7.3543 0.423404 8.66279 0.336323 10.5785C0.248417 12.4984 0.227539 13.1115 0.227539 17.9999C0.227539 22.8885 0.248417 23.5019 0.336323 25.4215C0.423679 27.3372 0.728054 28.6457 1.17308 29.7908C1.62497 30.9916 2.33371 32.0798 3.24958 32.9787C4.14869 33.8945 5.23708 34.6031 6.43837 35.0549C7.58334 35.5001 8.89204 35.8042 10.8084 35.8918C12.7286 35.9794 13.3417 36 18.231 36C23.1202 36 23.7336 35.9794 25.6535 35.8918C27.5699 35.8042 28.8783 35.5001 30.0235 35.0549C32.4418 34.1199 34.3535 32.2086 35.2886 29.7908C35.7338 28.6457 36.0379 27.3372 36.1256 25.4215C36.2129 23.5016 36.2338 22.8885 36.2338 18.0001C36.2338 13.1115 36.2129 12.4984 36.1256 10.5788ZM32.8849 25.274C32.8049 27.029 32.5115 27.9821 32.2651 28.6163C31.6594 30.1863 30.4186 31.4269 28.8483 32.0325C28.214 32.2789 27.2608 32.5722 25.5054 32.6522C23.6075 32.739 23.038 32.7571 18.2307 32.7571C13.423 32.7571 12.8539 32.739 10.9556 32.6522C9.20054 32.5722 8.24731 32.2789 7.61274 32.0325C6.83092 31.7439 6.12356 31.2838 5.54283 30.6859C4.94479 30.1052 4.48466 29.3983 4.19594 28.6163C3.94953 27.9821 3.65615 27.029 3.57621 25.274C3.48967 23.3761 3.47127 22.8067 3.47127 18.0004C3.47127 13.1939 3.48967 12.6248 3.57621 10.7266C3.65642 8.9715 3.94953 8.01843 4.19594 7.38424C4.48466 6.60228 4.94507 5.89503 5.54283 5.3144C6.12356 4.71647 6.83092 4.25641 7.61301 3.96802C8.24731 3.72137 9.20054 3.42831 10.9559 3.34811C12.8541 3.26159 13.4236 3.24319 18.2307 3.24319C23.0375 3.24319 23.607 3.26159 25.5054 3.34838C27.2608 3.42831 28.2138 3.72165 28.8483 3.96802C29.6302 4.25669 30.3375 4.71674 30.9183 5.3144C31.5163 5.89503 31.9764 6.60228 32.2649 7.38424C32.5115 8.01843 32.8049 8.9715 32.8849 10.7266C32.9714 12.6245 32.9898 13.1939 32.9898 18.0001C32.9898 22.8067 32.9717 23.3758 32.8849 25.274ZM18.23 8.75586C13.1243 8.75586 8.98535 12.8945 8.98535 17.9993C8.98535 23.1042 13.1243 27.2425 18.23 27.2425C23.336 27.2425 27.475 23.1042 27.475 17.9993C27.475 12.8945 23.336 8.75586 18.23 8.75586ZM18.23 23.9993C14.916 23.999 12.2291 21.3128 12.2294 17.9991C12.2294 14.6855 14.916 11.9991 18.2303 11.9991C21.5446 11.9993 24.2312 14.6855 24.2312 17.9991C24.2312 21.3128 21.5443 23.9993 18.23 23.9993ZM27.8403 10.5525C29.0333 10.5525 30.0005 9.5853 30.0005 8.39225C30.0005 7.19893 29.0333 6.23169 27.8403 6.23169C26.6469 6.23169 25.6797 7.19893 25.6797 8.39225C25.6797 9.5853 26.6469 10.5525 27.8403 10.5525Z" fill="white"/>
</svg>
