<svg width="36" height="30" viewBox="0 0 36 30" fill="none" xmlns="http://www.w3.org/2000/svg">
<path d="M24.0215 21.1702C24.8496 20.3995 25.3689 19.3014 25.3689 18.0837C25.3689 15.7578 23.4764 13.8656 21.1501 13.8656C18.8239 13.8656 16.9314 15.7578 16.9314 18.0837C16.9314 18.3726 16.9607 18.6547 17.0162 18.9274H16.8842C16.5725 16.1208 14.7247 13.7711 12.2026 12.74C13.0344 11.969 13.5563 10.8682 13.5563 9.64746C13.5563 7.32158 11.6638 5.42932 9.33756 5.42932C7.01132 5.42932 5.11878 7.32158 5.11878 9.64746C5.11878 10.8651 5.63808 11.9633 6.46615 12.7339C3.8775 13.7782 1.99076 16.19 1.7212 19.061C0.721692 19.3996 0 20.3459 0 21.4582V28.2073C0 28.6732 0.377777 29.0509 0.843755 29.0509C1.43056 29.0509 27.3696 29.0509 27.9564 29.0509C28.4224 29.0509 28.8002 28.6732 28.8002 28.2073C28.8002 25.0281 26.821 22.2995 24.0215 21.1702ZM21.1501 15.5528C22.5459 15.5528 23.6814 16.6882 23.6814 18.0837C23.6814 19.4793 22.5459 20.6146 21.1501 20.6146C19.7544 20.6146 18.6189 19.4793 18.6189 18.0837C18.6189 16.6882 19.7544 15.5528 21.1501 15.5528ZM9.33756 7.11658C10.7333 7.11658 11.8688 8.25193 11.8688 9.64746C11.8688 11.043 10.7333 12.1783 9.33756 12.1783C7.94182 12.1783 6.80629 11.043 6.80629 9.64746C6.80629 8.25193 7.94182 7.11658 9.33756 7.11658ZM9.33756 13.8656C12.3079 13.8656 14.7731 16.0693 15.1838 18.9274H3.43566C3.85022 16.0693 6.33896 13.8656 9.33756 13.8656ZM1.68751 21.4582C1.68751 20.9931 2.06602 20.6146 2.53127 20.6146C3.16009 20.6146 17.1173 20.6146 17.7774 20.6146C17.9296 20.8168 18.0998 21.0045 18.2851 21.1762C17.5946 21.4585 16.9548 21.8396 16.383 22.3019H1.68751V21.4582ZM13.6035 27.3636H1.68751V23.9835H14.8392C14.1774 24.97 13.7411 26.1252 13.6035 27.3636ZM15.3039 27.3636C15.7146 24.5056 18.1798 22.3019 21.1501 22.3019C24.1487 22.3019 26.6375 24.5056 27.052 27.3636H15.3039Z" fill="#101928"/>
<path d="M33.4694 0.255371H24.9756C23.5799 0.255371 22.4443 1.39072 22.4443 2.78624V6.27321C22.4443 7.37307 23.1497 8.31134 24.1318 8.65953V11.3349C24.1318 11.6762 24.3374 11.9838 24.6527 12.1143C24.968 12.2449 25.3309 12.1728 25.5722 11.9315L28.7001 8.80408H33.4694C34.8651 8.80408 36.0007 7.66873 36.0007 6.27321V2.78624C36.0007 1.39072 34.8651 0.255371 33.4694 0.255371ZM34.3132 6.27321C34.3132 6.73838 33.9346 7.11683 33.4694 7.11683H28.3506C28.1268 7.11683 27.9122 7.20569 27.754 7.3639L25.8194 9.29827V7.96045C25.8194 7.49455 25.4416 7.11683 24.9756 7.11683C24.5104 7.11683 24.1318 6.73838 24.1318 6.27321V2.78624C24.1318 2.32106 24.5104 1.94262 24.9756 1.94262H33.4694C33.9346 1.94262 34.3132 2.32106 34.3132 2.78624V6.27321Z" fill="#101928"/>
</svg>
