<svg width="36" height="36" viewBox="0 0 36 36" fill="none" xmlns="http://www.w3.org/2000/svg">
<g clip-path="url(#clip0)">
<path d="M17.9903 0.503403L18.0002 0.503598L18.0101 0.503403C27.4579 0.317116 35.2765 7.8062 35.4983 17.2519C35.2765 26.6975 27.4579 34.1865 18.0101 34.0003L18.0101 34.0001L17.9992 34.0002C15.7804 34.0046 13.5798 33.6004 11.5074 32.8078L11.275 32.7189L11.0639 32.8507L6.88383 35.462L6.8838 35.462C6.84404 35.4868 6.79811 35.5 6.7513 35.5C6.61327 35.5 6.50135 35.3881 6.50135 35.25V30.0905V29.8584L6.32408 29.7086C2.65593 26.6087 0.52864 22.0585 0.501984 17.2562C0.721486 7.80854 8.54102 0.317087 17.9903 0.503403Z" fill="white" stroke="black"/>
<path d="M29.4479 12.6015L29.4494 12.6036C29.5241 12.7025 29.5149 12.8411 29.428 12.9294C29.4278 12.9296 29.4277 12.9297 29.4275 12.9299L20.43 21.9274L20.4299 21.9275C20.3377 22.0197 20.1898 22.0255 20.0906 21.9404L20.0905 21.9403L15.234 17.7782L14.9721 17.5538L14.6693 17.7189L6.87106 21.9705C6.8709 21.9705 6.87075 21.9706 6.87059 21.9707C6.77362 22.023 6.65388 22.0057 6.57573 21.928L6.57569 21.928C6.47793 21.8308 6.47731 21.6729 6.57422 21.575C6.57436 21.5749 6.57449 21.5747 6.57462 21.5746L15.5727 12.5765L15.5727 12.5765C15.6649 12.4842 15.8128 12.4785 15.912 12.5635C15.912 12.5635 15.9121 12.5635 15.9121 12.5636L20.764 16.7241L21.0259 16.9487L21.3288 16.7836L29.128 12.5315C29.2372 12.472 29.3735 12.5018 29.4479 12.6015Z" stroke="#101928"/>
</g>
<defs>
<clipPath id="clip0">
<rect width="36" height="36" fill="white"/>
</clipPath>
</defs>
</svg>
