<svg width="36" height="36" viewBox="0 0 36 36" fill="none" xmlns="http://www.w3.org/2000/svg">
<path d="M35.1244 18.9112L35.1198 18.9158L18.9158 35.1198C18.4089 35.6267 17.5912 35.6267 17.0842 35.1198L0.880185 18.9158C0.373272 18.4088 0.373272 17.5911 0.880185 17.0842L17.0842 0.880185C17.5912 0.373272 18.4089 0.373272 18.9158 0.880185L35.1154 17.0797C35.116 17.0804 35.1167 17.0811 35.1174 17.0818C35.6332 17.613 35.6195 18.4288 35.1244 18.9112L35.1244 18.9112ZM21.0919 22.5101V23.7172L21.9455 22.8637L28.247 16.5621L28.6006 16.2086L28.247 15.855L21.9455 9.55342L21.0919 8.69987V9.90698V13.9081H12.5896C11.3233 13.9081 10.2892 14.9422 10.2892 16.2086V23.4104V23.9104H10.7892H14.3901H14.8901V23.4104V18.509H21.0919V22.5101Z" fill="white" stroke="#101928"/>
</svg>
