<svg width="42" height="33" viewBox="0 0 42 33" fill="none" xmlns="http://www.w3.org/2000/svg">
<path opacity="0.6" d="M17.5535 16.1978V33H0.140625V21.8791C0.140625 17.6886 0.886889 13.8608 2.37942 10.3956C3.87195 6.9304 6.40096 3.4652 9.96644 0L16.4341 4.83517C14.444 7.01099 12.8686 8.98535 11.7077 10.7582C10.6298 12.5311 9.92498 14.3443 9.59331 16.1978H17.5535ZM41.5583 16.1978V33H24.1455V21.8791C24.1455 17.6886 24.8917 13.8608 26.3843 10.3956C27.8768 6.9304 30.4058 3.4652 33.9713 0L40.4389 4.83517C38.4489 7.01099 36.8734 8.98535 35.7126 10.7582C34.6346 12.5311 33.9298 14.3443 33.5981 16.1978H41.5583Z" fill="#101928"/>
</svg>
