<svg width="36" height="36" viewBox="0 0 36 36" fill="none" xmlns="http://www.w3.org/2000/svg">
<path d="M35.8228 21.6303L31.992 15.8848L35.8258 10.0711C36.0394 9.74726 36.0579 9.33227 35.874 8.99074C35.6899 8.64915 35.3333 8.43614 34.9453 8.43614H25.4531V5.27259C25.4531 3.5282 24.0337 2.10903 22.289 2.10903H10.3655C9.93008 0.881717 8.75776 0 7.3828 0C5.63814 0 4.21874 1.41917 4.21874 3.16355V33.8852H1.05469C0.472218 33.8852 0 34.3573 0 34.9397C0 35.522 0.472218 35.9942 1.05469 35.9942C1.47297 35.9942 13.0586 35.9942 13.7109 35.9942C14.2934 35.9942 14.7656 35.522 14.7656 34.9397C14.7656 34.3573 14.2934 33.8852 13.7109 33.8852H10.5469V19.0516H23.3437V20.1061C23.3437 21.8505 24.7631 23.2697 26.5078 23.2697H34.9453C35.3342 23.2697 35.6916 23.0556 35.8752 22.7128C36.0587 22.3699 36.0386 21.9538 35.8228 21.6303ZM8.43749 17.9971V33.8852H6.32812V3.16355C6.32812 2.58209 6.80125 2.10903 7.3828 2.10903C7.96436 2.10903 8.43749 2.58209 8.43749 3.16355V17.9971ZM23.3437 16.9426H10.5469V4.21807H22.289C22.8706 4.21807 23.3437 4.69113 23.3437 5.27259C23.3437 5.54086 23.3437 16.4238 23.3437 16.9426ZM26.5078 21.1606C25.9262 21.1606 25.4531 20.6876 25.4531 20.1061C25.4531 19.8511 25.4531 10.7915 25.4531 10.5452H32.9866L29.8461 15.3076C29.6128 15.6613 29.6139 16.1204 29.849 16.473L32.9746 21.1606H26.5078Z" fill="#101928"/>
</svg>
