<svg width="1447" height="715" viewBox="0 0 1447 715" fill="none" xmlns="http://www.w3.org/2000/svg">
<g clip-path="url(#clip0)">
<path opacity="0.1" d="M1475.67 151.522C1481.01 136.356 1473.05 119.488 1457.23 116.571C1425.96 110.8 1393.55 113.096 1363.14 123.474C1323.5 137.005 1289.56 163.485 1266.8 198.65C1244.04 233.815 1233.78 275.618 1237.67 317.325C1240.65 349.315 1251.83 379.821 1269.9 405.994C1279.04 419.225 1297.69 419.582 1309.34 408.5V408.5C1320.99 397.418 1321.1 379.098 1312.92 365.254C1303.36 349.067 1297.41 330.871 1295.64 311.918C1292.97 283.23 1300.03 254.476 1315.68 230.288C1331.34 206.1 1354.68 187.886 1381.95 178.579C1399.96 172.43 1419 170.406 1437.68 172.5C1453.66 174.29 1470.33 166.689 1475.67 151.522V151.522Z" fill="#EB5757"/>
<path opacity="0.1" d="M1454.54 -43.4291C1467.95 -53.859 1487.53 -51.5223 1495.72 -36.6295C1504.89 -19.9547 1511.59 -1.97653 1515.56 16.7459C1521.67 45.5371 1521.17 75.3386 1514.1 103.909C1507.03 132.479 1493.57 159.073 1474.74 181.692C1455.91 204.311 1432.19 222.365 1405.37 234.495C1378.56 246.626 1349.34 252.518 1319.92 251.728C1290.5 250.938 1261.64 243.486 1235.51 229.933C1209.39 216.381 1186.67 197.08 1169.08 173.483C1157.64 158.138 1148.57 141.237 1142.09 123.342C1136.31 107.36 1147.49 91.1119 1164.18 87.9204V87.9204C1180.87 84.7289 1196.68 95.9157 1203.61 111.433C1207.59 120.346 1212.55 128.823 1218.43 136.7C1230.45 152.836 1245.99 166.034 1263.85 175.302C1281.72 184.57 1301.45 189.665 1321.57 190.206C1341.69 190.746 1361.67 186.717 1380.01 178.422C1398.34 170.126 1414.56 157.781 1427.44 142.313C1440.32 126.846 1449.52 108.66 1454.36 89.1232C1459.19 69.5862 1459.53 49.2072 1455.36 29.519C1453.32 19.9084 1450.23 10.5845 1446.16 1.70913C1439.08 -13.7418 1441.12 -32.9993 1454.54 -43.4291V-43.4291Z" fill="#F5CD33"/>
<g opacity="0.15">
<g opacity="0.8">
<rect width="13.8207" height="3.49419" transform="matrix(-0.995773 -0.0918472 0.0827 -0.996574 485.515 378.066)" fill="#D51F2D"/>
<rect width="13.8381" height="3.49023" transform="matrix(-0.983156 0.182767 -0.164958 -0.986301 444.306 376.146)" fill="#D51F2D"/>
<rect width="13.9046" height="3.47495" transform="matrix(-0.933624 0.358256 -0.326333 -0.945255 402.829 374.841)" fill="#D51F2D"/>
<rect width="14.0061" height="3.45141" transform="matrix(-0.854202 0.519942 -0.48032 -0.877093 361.138 373.562)" fill="#D51F2D"/>
<rect width="14.1295" height="3.42231" transform="matrix(-0.748986 0.662586 -0.622737 -0.782431 319.238 372.347)" fill="#D51F2D"/>
<rect width="14.2596" height="3.39108" transform="matrix(-0.622737 0.782431 -0.748986 -0.662586 277.147 371.234)" fill="#D51F2D"/>
<rect width="14.3809" height="3.36146" transform="matrix(-0.480319 0.877094 -0.854202 -0.519941 234.882 370.257)" fill="#D51F2D"/>
<rect width="14.479" height="3.33712" transform="matrix(-0.326332 0.945255 -0.933624 -0.358255 192.469 369.444)" fill="#D51F2D"/>
<rect width="14.5426" height="3.32113" transform="matrix(-0.164958 0.986301 -0.983156 -0.182766 149.936 368.821)" fill="#D51F2D"/>
<rect x="107.382" y="368.624" width="14.2561" height="3.38053" transform="rotate(90 107.382 368.624)" fill="#D51F2D"/>
<rect x="486.001" y="344.388" width="14.1982" height="2.85121" transform="rotate(180 486.001 344.388)" fill="#D51F2D"/>
<rect width="13.8381" height="2.90853" transform="matrix(-0.983156 0.182767 -0.164958 -0.986301 444.376 342.898)" fill="#D51F2D"/>
<rect width="13.9046" height="2.89579" transform="matrix(-0.933624 0.358256 -0.326333 -0.945255 402.853 341.606)" fill="#D51F2D"/>
<rect width="14.0061" height="2.87618" transform="matrix(-0.854202 0.519942 -0.48032 -0.877093 361.118 340.348)" fill="#D51F2D"/>
<rect width="14.1295" height="2.85193" transform="matrix(-0.748986 0.662586 -0.622737 -0.782431 319.179 339.163)" fill="#D51F2D"/>
<rect width="14.2596" height="2.8259" transform="matrix(-0.622737 0.782431 -0.748986 -0.662586 277.054 338.086)" fill="#D51F2D"/>
<rect width="14.3809" height="2.80121" transform="matrix(-0.480319 0.877094 -0.854202 -0.519941 234.761 337.149)" fill="#D51F2D"/>
<rect width="14.479" height="2.78093" transform="matrix(-0.326332 0.945255 -0.933624 -0.358255 192.326 336.383)" fill="#D51F2D"/>
<rect width="14.5426" height="2.76761" transform="matrix(-0.164958 0.986301 -0.983156 -0.182766 149.781 335.809)" fill="#D51F2D"/>
<rect x="107.382" y="335.122" width="14.9689" height="2.70442" transform="rotate(90 107.382 335.122)" fill="#D51F2D"/>
<rect x="486.001" y="312.312" width="14.1982" height="2.85121" transform="rotate(180 486.001 312.312)" fill="#D51F2D"/>
<rect width="13.8381" height="2.90853" transform="matrix(-0.983156 0.182767 -0.164958 -0.986301 444.376 310.855)" fill="#D51F2D"/>
<rect width="13.9046" height="2.89579" transform="matrix(-0.933624 0.358256 -0.326333 -0.945255 402.853 309.564)" fill="#D51F2D"/>
<rect width="14.0061" height="2.87618" transform="matrix(-0.854202 0.519942 -0.48032 -0.877093 361.118 308.306)" fill="#D51F2D"/>
<rect width="14.1295" height="2.85193" transform="matrix(-0.748986 0.662586 -0.622737 -0.782431 319.179 307.12)" fill="#D51F2D"/>
<rect width="14.2596" height="2.8259" transform="matrix(-0.622737 0.782431 -0.748986 -0.662586 277.054 306.043)" fill="#D51F2D"/>
<rect width="14.3809" height="2.80121" transform="matrix(-0.480319 0.877094 -0.854202 -0.519941 234.761 305.107)" fill="#D51F2D"/>
<rect width="14.479" height="2.78093" transform="matrix(-0.326332 0.945255 -0.933624 -0.358255 192.326 304.341)" fill="#D51F2D"/>
<rect width="14.5426" height="2.76761" transform="matrix(-0.164958 0.986301 -0.983156 -0.182766 149.781 303.767)" fill="#D51F2D"/>
<rect x="107.382" y="303.759" width="14.2561" height="2.70442" transform="rotate(90 107.382 303.759)" fill="#D51F2D"/>
<rect x="486.001" y="280.236" width="14.1982" height="2.85121" transform="rotate(180 486.001 280.236)" fill="#D51F2D"/>
<rect width="13.8381" height="2.90853" transform="matrix(-0.983156 0.182767 -0.164958 -0.986301 444.376 278.813)" fill="#D51F2D"/>
<rect width="13.9046" height="2.89579" transform="matrix(-0.933624 0.358256 -0.326333 -0.945255 402.853 277.521)" fill="#D51F2D"/>
<rect width="14.0061" height="2.87618" transform="matrix(-0.854202 0.519942 -0.48032 -0.877093 361.118 276.263)" fill="#D51F2D"/>
<rect width="14.1295" height="2.85193" transform="matrix(-0.748986 0.662586 -0.622737 -0.782431 319.179 275.078)" fill="#D51F2D"/>
<rect width="14.2596" height="2.8259" transform="matrix(-0.622737 0.782431 -0.748986 -0.662586 277.054 274.001)" fill="#D51F2D"/>
<rect width="14.3809" height="2.80121" transform="matrix(-0.480319 0.877094 -0.854202 -0.519941 234.761 273.065)" fill="#D51F2D"/>
<rect width="14.479" height="2.78093" transform="matrix(-0.326332 0.945255 -0.933624 -0.358255 192.326 272.298)" fill="#D51F2D"/>
<rect width="14.5426" height="2.76761" transform="matrix(-0.164958 0.986301 -0.983156 -0.182766 149.781 271.724)" fill="#D51F2D"/>
<rect x="107.382" y="271.682" width="14.2561" height="2.70442" transform="rotate(90 107.382 271.682)" fill="#D51F2D"/>
<rect x="486.001" y="248.16" width="14.1982" height="2.85121" transform="rotate(180 486.001 248.16)" fill="#D51F2D"/>
<rect width="13.8381" height="2.90853" transform="matrix(-0.983156 0.182767 -0.164958 -0.986301 444.376 246.771)" fill="#D51F2D"/>
<rect width="13.9046" height="2.89579" transform="matrix(-0.933624 0.358256 -0.326333 -0.945255 402.853 245.479)" fill="#D51F2D"/>
<rect width="14.0061" height="2.87618" transform="matrix(-0.854202 0.519942 -0.48032 -0.877093 361.118 244.221)" fill="#D51F2D"/>
<rect width="14.1295" height="2.85193" transform="matrix(-0.748986 0.662586 -0.622737 -0.782431 319.179 243.036)" fill="#D51F2D"/>
<rect width="14.2596" height="2.8259" transform="matrix(-0.622737 0.782431 -0.748986 -0.662586 277.054 241.958)" fill="#D51F2D"/>
<rect width="14.3809" height="2.80121" transform="matrix(-0.480319 0.877094 -0.854202 -0.519941 234.761 241.023)" fill="#D51F2D"/>
<rect width="14.479" height="2.78093" transform="matrix(-0.326332 0.945255 -0.933624 -0.358255 192.326 240.256)" fill="#D51F2D"/>
<rect width="14.5426" height="2.76761" transform="matrix(-0.164958 0.986301 -0.983156 -0.182766 149.781 239.682)" fill="#D51F2D"/>
<rect x="107.382" y="239.606" width="14.2561" height="2.70442" transform="rotate(90 107.382 239.606)" fill="#D51F2D"/>
<rect x="486.001" y="216.083" width="14.1982" height="3.56402" transform="rotate(180 486.001 216.083)" fill="#D51F2D"/>
<rect width="13.8381" height="3.49023" transform="matrix(-0.983156 0.182767 -0.164958 -0.986301 444.424 214.724)" fill="#D51F2D"/>
<rect width="13.9046" height="3.47495" transform="matrix(-0.933624 0.358256 -0.326333 -0.945255 402.947 213.419)" fill="#D51F2D"/>
<rect width="14.0061" height="3.45141" transform="matrix(-0.854202 0.519942 -0.48032 -0.877093 361.255 212.14)" fill="#D51F2D"/>
<rect width="14.1295" height="3.42231" transform="matrix(-0.748986 0.662586 -0.622737 -0.782431 319.357 210.926)" fill="#D51F2D"/>
<rect width="14.2596" height="3.39108" transform="matrix(-0.622737 0.782431 -0.748986 -0.662586 277.266 209.812)" fill="#D51F2D"/>
<rect width="14.3809" height="3.36146" transform="matrix(-0.480319 0.877094 -0.854202 -0.519941 235 208.835)" fill="#D51F2D"/>
<rect width="14.479" height="3.33712" transform="matrix(-0.326332 0.945255 -0.933624 -0.358255 192.587 208.022)" fill="#D51F2D"/>
<rect width="14.5426" height="3.32113" transform="matrix(-0.164958 0.986301 -0.983156 -0.182766 150.054 207.399)" fill="#D51F2D"/>
<rect x="107.382" y="206.817" width="14.9689" height="3.38053" transform="rotate(90 107.382 206.817)" fill="#D51F2D"/>
<rect x="486.001" y="183.295" width="14.1982" height="2.85121" transform="rotate(180 486.001 183.295)" fill="#D51F2D"/>
<rect width="13.8381" height="2.90853" transform="matrix(-0.983156 0.182767 -0.164958 -0.986301 444.376 182.104)" fill="#D51F2D"/>
<rect width="13.9046" height="2.89579" transform="matrix(-0.933624 0.358256 -0.326333 -0.945255 402.853 180.812)" fill="#D51F2D"/>
<rect width="14.0061" height="2.87618" transform="matrix(-0.854202 0.519942 -0.48032 -0.877093 361.117 179.554)" fill="#D51F2D"/>
<rect width="14.1295" height="2.85193" transform="matrix(-0.748986 0.662586 -0.622737 -0.782431 319.179 178.369)" fill="#D51F2D"/>
<rect width="14.2596" height="2.8259" transform="matrix(-0.622737 0.782431 -0.748986 -0.662586 277.054 177.292)" fill="#D51F2D"/>
<rect width="14.3809" height="2.80121" transform="matrix(-0.480319 0.877094 -0.854202 -0.519941 234.761 176.355)" fill="#D51F2D"/>
<rect width="14.479" height="2.78093" transform="matrix(-0.326332 0.945255 -0.933624 -0.358255 192.326 175.589)" fill="#D51F2D"/>
<rect width="14.5426" height="2.76761" transform="matrix(-0.164958 0.986301 -0.983156 -0.182766 149.781 175.015)" fill="#D51F2D"/>
<rect x="107.382" y="174.741" width="14.2561" height="2.70442" transform="rotate(90 107.382 174.741)" fill="#D51F2D"/>
<rect x="486.001" y="151.219" width="14.1982" height="3.56402" transform="rotate(180 486.001 151.219)" fill="#D51F2D"/>
<rect width="13.8381" height="3.49023" transform="matrix(-0.983156 0.182767 -0.164958 -0.986301 444.424 150.057)" fill="#D51F2D"/>
<rect width="13.9046" height="3.47495" transform="matrix(-0.933624 0.358256 -0.326333 -0.945255 402.947 148.752)" fill="#D51F2D"/>
<rect width="14.0061" height="3.45141" transform="matrix(-0.854202 0.519942 -0.48032 -0.877093 361.255 147.473)" fill="#D51F2D"/>
<rect width="14.1295" height="3.42231" transform="matrix(-0.748986 0.662586 -0.622737 -0.782431 319.357 146.258)" fill="#D51F2D"/>
<rect width="14.2596" height="3.39108" transform="matrix(-0.622737 0.782431 -0.748986 -0.662586 277.266 145.145)" fill="#D51F2D"/>
<rect width="14.3809" height="3.36146" transform="matrix(-0.480319 0.877094 -0.854202 -0.519941 235.001 144.167)" fill="#D51F2D"/>
<rect width="14.479" height="3.33712" transform="matrix(-0.326332 0.945255 -0.933624 -0.358255 192.587 143.355)" fill="#D51F2D"/>
<rect width="14.5426" height="3.32113" transform="matrix(-0.164958 0.986301 -0.983156 -0.182766 150.054 142.732)" fill="#D51F2D"/>
<rect x="107.382" y="142.665" width="14.2561" height="3.38053" transform="rotate(90 107.382 142.665)" fill="#D51F2D"/>
<rect x="486.001" y="118.43" width="14.1982" height="2.85121" transform="rotate(180 486.001 118.43)" fill="#D51F2D"/>
<rect width="13.8381" height="2.90853" transform="matrix(-0.983156 0.182767 -0.164958 -0.986301 444.376 117.437)" fill="#D51F2D"/>
<rect width="13.9046" height="2.89579" transform="matrix(-0.933624 0.358256 -0.326333 -0.945255 402.853 116.145)" fill="#D51F2D"/>
<rect width="14.0061" height="2.87618" transform="matrix(-0.854202 0.519942 -0.48032 -0.877093 361.118 114.887)" fill="#D51F2D"/>
<rect width="14.1295" height="2.85193" transform="matrix(-0.748986 0.662586 -0.622737 -0.782431 319.179 113.702)" fill="#D51F2D"/>
<rect width="14.2596" height="2.8259" transform="matrix(-0.622737 0.782431 -0.748986 -0.662586 277.054 112.624)" fill="#D51F2D"/>
<rect width="14.3809" height="2.80121" transform="matrix(-0.480319 0.877094 -0.854202 -0.519941 234.761 111.688)" fill="#D51F2D"/>
<rect width="14.479" height="2.78093" transform="matrix(-0.326332 0.945255 -0.933624 -0.358255 192.326 110.922)" fill="#D51F2D"/>
<rect width="14.5426" height="2.76761" transform="matrix(-0.164958 0.986301 -0.983156 -0.182766 149.781 110.348)" fill="#D51F2D"/>
<rect x="107.382" y="109.876" width="14.9689" height="2.70442" transform="rotate(90 107.382 109.876)" fill="#D51F2D"/>
<rect x="486.001" y="86.3534" width="14.1982" height="2.85121" transform="rotate(180 486.001 86.3534)" fill="#D51F2D"/>
<rect width="13.8381" height="2.90853" transform="matrix(-0.983156 0.182767 -0.164958 -0.986301 444.376 85.3943)" fill="#D51F2D"/>
<rect width="13.9046" height="2.89579" transform="matrix(-0.933624 0.358256 -0.326333 -0.945255 402.853 84.1025)" fill="#D51F2D"/>
<rect width="14.0061" height="2.87618" transform="matrix(-0.854202 0.519942 -0.48032 -0.877093 361.118 82.8445)" fill="#D51F2D"/>
<rect width="14.1295" height="2.85193" transform="matrix(-0.748986 0.662586 -0.622737 -0.782431 319.179 81.6592)" fill="#D51F2D"/>
<rect width="14.2596" height="2.8259" transform="matrix(-0.622737 0.782431 -0.748986 -0.662586 277.054 80.582)" fill="#D51F2D"/>
<rect width="14.3809" height="2.80121" transform="matrix(-0.480319 0.877094 -0.854202 -0.519941 234.761 79.6459)" fill="#D51F2D"/>
<rect width="14.479" height="2.78093" transform="matrix(-0.326332 0.945255 -0.933624 -0.358255 192.326 78.8794)" fill="#D51F2D"/>
<rect width="14.5426" height="2.76761" transform="matrix(-0.164958 0.986301 -0.983156 -0.182766 149.781 78.3058)" fill="#D51F2D"/>
<rect x="107.382" y="77.7994" width="14.9689" height="2.70442" transform="rotate(90 107.382 77.7994)" fill="#D51F2D"/>
</g>
</g>
</g>
<defs>
<clipPath id="clip0">
<rect width="1447" height="715" fill="white"/>
</clipPath>
</defs>
</svg>
