<svg width="36" height="41" viewBox="0 0 36 41" fill="none" xmlns="http://www.w3.org/2000/svg">
<path d="M23.5296 20.0868C26.6837 18.1977 28.8 14.7453 28.8 10.8071C28.8 4.84802 23.9551 0 18 0C12.0449 0 7.2 4.84802 7.2 10.8071C7.2 14.7453 9.31632 18.1977 12.4704 20.0867C5.3848 22.3492 0 28.9961 0 37.1097C0 39.0815 1.61496 40.6856 3.6 40.6856C3.93728 40.6856 31.5302 40.6856 32.4 40.6856C34.385 40.6856 36 39.0815 36 37.1097C36 28.9972 30.6164 22.3496 23.5296 20.0868ZM9.6 10.8071C9.6 6.16252 13.3682 2.38392 18 2.38392C22.6318 2.38392 26.4 6.16252 26.4 10.8071C26.4 15.4516 22.6318 19.2303 18 19.2303C13.3682 19.2303 9.6 15.4516 9.6 10.8071ZM20.2439 21.7751L18 23.637L15.7561 21.7751C16.489 21.6699 17.2381 21.6142 18 21.6142C18.7619 21.6142 19.511 21.6699 20.2439 21.7751ZM14.5834 38.3017H3.6C2.93832 38.3017 2.4 37.767 2.4 37.1097C2.4 32.1688 4.74016 27.7607 8.37736 24.9213L12.2015 30.6191C12.621 31.2439 13.5124 31.3332 14.0485 30.8008L14.4713 30.3808L15.5522 32.5281L14.5834 38.3017ZM13.9694 27.508C13.9683 27.509 13.9673 27.5101 13.9662 27.5113L13.3866 28.087L10.373 23.5969C11.1722 23.15 12.0147 22.7711 12.8928 22.468C13.0086 22.6171 12.7934 22.4232 16.2234 25.2691L13.9694 27.508ZM17.0166 38.3017L17.9837 32.5378C17.9946 32.473 18 32.4076 18 32.3425C18 32.4077 18.0054 32.473 18.0163 32.5378L18.9834 38.3017H17.0166ZM18.1266 31.8088C18.043 31.975 18 32.1574 18 32.3413C17.9999 32.1574 17.957 31.975 17.8734 31.8088L16.2602 28.604L18 26.8758L19.7398 28.604L18.1266 31.8088ZM23.1072 22.468C24.1078 22.8133 25.0622 23.2571 25.9589 23.7877L22.6702 28.1433L22.0336 27.511C22.0326 27.5101 22.0318 27.5091 22.0307 27.5082L19.7766 25.2691C23.212 22.4186 22.9928 22.6152 23.1072 22.468ZM32.4 38.3017H21.4166L20.4478 32.5282L21.5287 30.3809L21.9515 30.8008C22.467 31.3128 23.3217 31.2537 23.76 30.6731L27.922 25.1609C31.3877 28.0054 33.6 32.3057 33.6 37.1097C33.6 37.767 33.0617 38.3017 32.4 38.3017Z" fill="#101928"/>
</svg>
