<svg width="36" height="37" viewBox="0 0 36 37" fill="none" xmlns="http://www.w3.org/2000/svg">
<path d="M13.7113 11.8221C14.4824 11.031 14.9067 10.0045 14.9067 8.91659C14.9067 6.5714 12.9375 4.69836 10.6175 4.69836C8.29565 4.69836 6.32822 6.57379 6.32822 8.91659C6.32822 10.0045 6.75243 11.031 7.52365 11.8221C5.58449 12.8934 4.21875 14.9419 4.21875 17.353V18.4076C4.21875 18.99 4.69099 19.4621 5.27348 19.4621H15.9614C16.5439 19.4621 17.0162 18.99 17.0162 18.4076V17.353C17.0162 14.9837 15.6887 12.9145 13.7113 11.8221ZM10.6175 6.80748C11.799 6.80748 12.7972 7.77331 12.7972 8.91659C12.7972 10.0599 11.799 11.0257 10.6175 11.0257C9.43588 11.0257 8.43768 10.0599 8.43768 8.91659C8.43768 7.77331 9.43588 6.80748 10.6175 6.80748ZM6.32822 17.353C6.32822 15.0271 8.25233 13.1348 10.6175 13.1348C12.9826 13.1348 14.9067 15.0271 14.9067 17.353H6.32822Z" fill="#101928"/>
<path d="M23.2737 11.0257H19.0547C18.4722 11.0257 18 11.4979 18 12.0804C18 12.6629 18.4722 13.1352 19.0547 13.1352H23.2737C23.8562 13.1352 24.3284 12.6629 24.3284 12.0804C24.3284 11.4979 23.8562 11.0257 23.2737 11.0257Z" fill="#101928"/>
<path d="M23.2737 15.2439H19.0547C18.4722 15.2439 18 15.7162 18 16.2987C18 16.8812 18.4722 17.3534 19.0547 17.3534H23.2737C23.8562 17.3534 24.3284 16.8812 24.3284 16.2987C24.3284 15.7162 23.8562 15.2439 23.2737 15.2439Z" fill="#101928"/>
<path d="M35.0748 12.4201C33.8411 11.1866 31.8336 11.1866 30.5999 12.4201L29.6732 13.3467V7.8618C29.6732 7.58747 29.5685 7.32467 29.3643 7.11622C29.3643 7.11615 29.3643 7.11608 29.3642 7.11608L23.044 0.656499C22.8382 0.447343 22.5607 0.339355 22.29 0.339355H3.1642C1.41531 0.339355 0 1.8225 0 3.57336V33.1716C0 34.916 1.41946 36.3353 3.1642 36.3353H26.509C28.2537 36.3353 29.6732 34.916 29.6732 33.1716V22.295L32.0915 19.8771L35.0748 16.8943C36.3084 15.6608 36.3084 13.6537 35.0748 12.4201ZM23.3448 3.98L26.1111 6.80737H23.3448V3.98ZM27.5637 33.1716C27.5637 33.7531 27.0905 34.2261 26.509 34.2261H3.1642C2.58262 34.2261 2.10947 33.7531 2.10947 33.1716V3.57336C2.10947 2.97416 2.60231 2.44849 3.1642 2.44849H21.2353V7.86194C21.2353 8.44434 21.7075 8.91651 22.29 8.91651H27.5637V15.456L18.6669 24.3512C18.5935 24.4246 18.5206 24.5228 18.4694 24.6253L15.7777 30.0079H11.6724C11.0899 30.0079 10.6176 30.48 10.6176 31.0624C10.6176 31.6448 11.0899 32.117 11.6724 32.117H15.9616C16.0424 32.117 16.6919 32.1103 16.9013 32.0057L22.8677 29.023C22.9712 28.9708 23.0664 28.9006 23.1418 28.8254L27.5637 24.4042V33.1716ZM21.2446 27.4763L18.788 28.7043L20.0163 26.2481C20.5951 26.4393 21.0535 26.8975 21.2446 27.4763ZM22.9133 26.0711C22.5566 25.4521 22.0408 24.9363 21.4217 24.5796L28.3625 17.64L29.8541 19.1314L22.9133 26.0711ZM33.5831 15.4029L31.3457 17.64L29.8541 16.1486L32.0915 13.9115C32.5028 13.5004 33.1719 13.5004 33.5831 13.9115C33.9944 14.3227 33.9944 14.9917 33.5831 15.4029Z" fill="#101928"/>
<path d="M13.852 21.5713H5.27348C4.69099 21.5713 4.21875 22.0435 4.21875 22.626C4.21875 23.2085 4.69099 23.6807 5.27348 23.6807H13.852C14.4345 23.6807 14.9067 23.2085 14.9067 22.626C14.9067 22.0435 14.4345 21.5713 13.852 21.5713Z" fill="#101928"/>
<path d="M13.852 25.7895H5.27348C4.69099 25.7895 4.21875 26.2617 4.21875 26.8442C4.21875 27.4267 4.69099 27.899 5.27348 27.899H13.852C14.4345 27.899 14.9067 27.4267 14.9067 26.8442C14.9067 26.2617 14.4345 25.7895 13.852 25.7895Z" fill="#101928"/>
</svg>
