<svg width="36" height="36" viewBox="0 0 36 36" fill="none" xmlns="http://www.w3.org/2000/svg">
<path d="M13.6759 23.9734C14.3934 23.2218 14.835 22.208 14.835 21.0929C14.835 18.7823 12.9424 16.9025 10.6162 16.9025C8.29464 16.9025 6.32715 18.7655 6.32715 21.0929C6.32715 22.1737 6.75142 23.1935 7.52254 23.9793C5.58135 25.0448 4.21777 27.0806 4.21777 29.4739V30.5215C4.21777 31.1001 4.68999 31.5691 5.27246 31.5691H15.8897C16.4721 31.5691 16.9444 31.1001 16.9444 30.5215V29.4739C16.9444 27.1097 15.6232 25.0464 13.6759 23.9734ZM10.6163 18.9977C11.7794 18.9977 12.7257 19.9376 12.7257 21.0929C12.7257 22.2483 11.7794 23.1882 10.6163 23.1882C9.43476 23.1882 8.4366 22.2287 8.4366 21.0929C8.4366 19.9572 9.43476 18.9977 10.6163 18.9977ZM6.32722 29.4739C6.32722 27.1633 8.25125 25.2834 10.6163 25.2834C12.9425 25.2834 14.835 27.1633 14.835 29.4739H6.32722Z" fill="#101928"/>
<path d="M30.7265 10.5461H25.3827V9.49847C25.3827 8.91991 24.9105 8.45086 24.3281 8.45086H20.9833C20.8948 8.20278 20.7752 7.96923 20.6301 7.75405L25.175 1.67209C25.5222 1.20751 25.4245 0.55135 24.9568 0.206475C24.4889 -0.1384 23.8284 -0.0412507 23.4813 0.423262L18.9416 6.49817C18.6441 6.40584 18.3279 6.35556 18.0001 6.35556C17.6722 6.35556 17.3561 6.40584 17.0585 6.49817L12.5187 0.423332C12.1714 -0.0412507 11.5108 -0.13826 11.0431 0.206545C10.5754 0.55142 10.4777 1.20758 10.8249 1.67216L15.3698 7.75412C15.2247 7.9693 15.1052 8.20285 15.0166 8.45093H11.6719C11.0894 8.45093 10.6172 8.91998 10.6172 9.49854V10.5462H5.27344C2.35807 10.5462 0 12.958 0 15.8541V30.5207C0 33.409 2.36566 35.7588 5.27344 35.7588H30.7266C33.6343 35.7588 36 33.409 36 30.5207V15.8541C35.9999 12.9582 33.642 10.5461 30.7265 10.5461ZM12.7265 10.5461H15.8906C16.473 10.5461 16.9452 10.077 16.9452 9.49847C16.9452 8.92082 17.4184 8.45086 17.9999 8.45086C18.5815 8.45086 19.0546 8.92082 19.0546 9.49847C19.0546 10.077 19.5268 10.5461 20.1093 10.5461H23.2734V11.5937C23.2734 12.1714 22.8002 12.6413 22.2187 12.6413H13.7812C13.1996 12.6413 12.7265 12.1714 12.7265 11.5937V10.5461ZM33.8906 30.5206C33.8906 32.2536 32.4712 33.6635 30.7265 33.6635H5.27337C3.5287 33.6635 2.1093 32.2536 2.1093 30.5206V15.854C2.1093 14.1125 3.55823 12.6413 5.27337 12.6413H10.7985C11.2339 13.8606 12.4062 14.7365 13.7812 14.7365H22.2187C23.5936 14.7365 24.766 13.8606 25.2013 12.6413H30.7265C32.4416 12.6413 33.8906 14.1125 33.8906 15.854V30.5206Z" fill="#101928"/>
<path d="M30.7256 18.9971H20.1084C19.5259 18.9971 19.0537 19.4662 19.0537 20.0449C19.0537 20.6235 19.5259 21.0927 20.1084 21.0927H30.7256C31.3081 21.0927 31.7803 20.6235 31.7803 20.0449C31.7803 19.4662 31.3081 18.9971 30.7256 18.9971Z" fill="#101928"/>
<path d="M30.7256 23.1873H20.1084C19.5259 23.1873 19.0537 23.6564 19.0537 24.2351C19.0537 24.8137 19.5259 25.2828 20.1084 25.2828H30.7256C31.3081 25.2828 31.7803 24.8137 31.7803 24.2351C31.7803 23.6564 31.3081 23.1873 30.7256 23.1873Z" fill="#101928"/>
<path d="M30.7256 27.3777H20.1084C19.5259 27.3777 19.0537 27.8468 19.0537 28.4255C19.0537 29.0041 19.5259 29.4733 20.1084 29.4733H30.7256C31.3081 29.4733 31.7803 29.0041 31.7803 28.4255C31.7803 27.8468 31.3081 27.3777 30.7256 27.3777Z" fill="#101928"/>
</svg>
