<svg width="36" height="37" viewBox="0 0 36 37" fill="none" xmlns="http://www.w3.org/2000/svg">
<path d="M26.4042 11.6749C27.1217 10.9184 27.5632 9.89779 27.5632 8.77549C27.5632 6.44968 25.6708 4.55743 23.3446 4.55743C21.0184 4.55743 19.1259 6.44961 19.1259 8.77549C19.1259 9.89786 19.5675 10.9184 20.2849 11.6749C18.3377 12.7549 17.0166 14.8317 17.0166 17.2115V18.266C17.0166 18.8484 17.4888 19.3206 18.0713 19.3206H28.6179C29.2004 19.3206 29.6726 18.8484 29.6726 18.266V17.2115C29.6725 14.8317 28.3514 12.7549 26.4042 11.6749ZM23.3446 6.66642C24.5077 6.66642 25.4539 7.61255 25.4539 8.77542C25.4539 9.93835 24.5076 10.8844 23.3446 10.8844C22.1815 10.8844 21.2353 9.93828 21.2353 8.77542C21.2353 7.61255 22.1815 6.66642 23.3446 6.66642ZM19.1259 17.2115C19.1259 14.8857 21.0184 12.9935 23.3446 12.9935C25.6707 12.9935 27.5632 14.8856 27.5632 17.2115H19.1259Z" fill="#101928"/>
<path d="M23.344 0.339355C16.3655 0.339355 10.688 6.01588 10.688 12.9933C10.688 16.1032 11.8166 18.954 13.6848 21.1596L11.6158 23.2283C10.4668 22.6785 9.00831 22.8531 8.0143 23.847L0.92765 30.9325C-0.309146 32.169 -0.309287 34.1694 0.92765 35.4061C2.16438 36.6426 4.16505 36.6427 5.40191 35.406C6.19117 34.6169 11.8938 28.9152 12.4886 28.3205C13.4607 27.3485 13.6662 25.8964 13.1061 24.7209L15.1764 22.6509C17.3822 24.5189 20.2337 25.6472 23.344 25.6472C30.3226 25.6472 36 19.9707 36 12.9933C36 6.01581 30.3226 0.339355 23.344 0.339355ZM3.91038 33.9149C3.49792 34.3272 2.83164 34.3273 2.41912 33.9149C2.00674 33.5024 2.00667 32.8362 2.41912 32.4238L7.08737 27.7564L8.57863 29.2474L3.91038 33.9149ZM10.997 26.8293L10.0701 27.756L8.57884 26.2651L9.50577 25.3383C9.9178 24.9263 10.5849 24.9263 10.997 25.3383C10.997 25.3384 10.9971 25.3384 10.9972 25.3385C11.4081 25.7495 11.4081 26.4183 10.997 26.8293ZM23.344 23.5383C17.5286 23.5383 12.7974 18.8078 12.7974 12.9933C12.7974 7.17887 17.5286 2.44831 23.344 2.44831C29.1595 2.44831 33.8907 7.1788 33.8907 12.9933C33.8907 18.8077 29.1594 23.5383 23.344 23.5383Z" fill="#101928"/>
</svg>
