<svg width="36" height="34" viewBox="0 0 36 34" fill="none" xmlns="http://www.w3.org/2000/svg">
<path d="M5.49207 12.2236L5.23529 12.4804L5.39998 12.804C7.77369 17.4682 11.5968 21.2735 16.2592 23.662L16.5832 23.828L16.8407 23.5706L20.3933 20.0186C20.6947 19.7172 21.1407 19.6189 21.5247 19.7505L21.5247 19.7505L21.53 19.7523C23.3891 20.3663 25.3959 20.6978 27.4517 20.6978C28.0638 20.6978 28.5665 21.2006 28.5665 21.8123V27.4471C28.5665 28.0588 28.0638 28.5616 27.4517 28.5616C12.5647 28.5616 0.5 16.4988 0.5 1.61453C0.5 1.00276 1.00273 0.5 1.61481 0.5H7.26663C7.87871 0.5 8.38143 1.00276 8.38143 1.61453C8.38143 3.68494 8.71257 5.67403 9.32587 7.53151C9.44864 7.9259 9.35845 8.3579 9.04465 8.67165L5.49207 12.2236Z" fill="white" stroke="#101928"/>
</svg>
