<svg width="1440" height="759" viewBox="0 0 1440 759" fill="none" xmlns="http://www.w3.org/2000/svg">
<g opacity="0.3">
<g opacity="0.8">
<rect width="13.1333" height="3.32039" transform="matrix(-0.995773 -0.0918472 0.0827 -0.996574 1311.54 420.331)" fill="#187697"/>
<rect width="13.1498" height="3.31663" transform="matrix(-0.983156 0.182767 -0.164958 -0.986301 1272.38 418.507)" fill="#187697"/>
<rect width="13.213" height="3.30211" transform="matrix(-0.933624 0.358256 -0.326333 -0.945255 1232.96 417.267)" fill="#187697"/>
<rect width="13.3094" height="3.27974" transform="matrix(-0.854202 0.519942 -0.48032 -0.877093 1193.35 416.052)" fill="#187697"/>
<rect width="13.4267" height="3.25209" transform="matrix(-0.748986 0.662586 -0.622737 -0.782431 1153.53 414.897)" fill="#187697"/>
<rect width="13.5504" height="3.22241" transform="matrix(-0.622737 0.782431 -0.748986 -0.662586 1113.53 413.84)" fill="#187697"/>
<rect width="13.6656" height="3.19426" transform="matrix(-0.480319 0.877094 -0.854202 -0.519941 1073.37 412.911)" fill="#187697"/>
<rect width="13.7588" height="3.17113" transform="matrix(-0.326332 0.945255 -0.933624 -0.358255 1033.07 412.138)" fill="#187697"/>
<rect width="13.8193" height="3.15594" transform="matrix(-0.164958 0.986301 -0.983156 -0.182766 992.649 411.547)" fill="#187697"/>
<rect x="952.213" y="411.359" width="13.547" height="3.21239" transform="rotate(90 952.213 411.359)" fill="#187697"/>
<rect x="1312" y="388.329" width="13.492" height="2.7094" transform="rotate(180 1312 388.329)" fill="#187697"/>
<rect width="13.1498" height="2.76386" transform="matrix(-0.983156 0.182767 -0.164958 -0.986301 1272.45 386.913)" fill="#187697"/>
<rect width="13.213" height="2.75176" transform="matrix(-0.933624 0.358256 -0.326333 -0.945255 1232.99 385.685)" fill="#187697"/>
<rect width="13.3094" height="2.73312" transform="matrix(-0.854202 0.519942 -0.48032 -0.877093 1193.33 384.49)" fill="#187697"/>
<rect width="13.4267" height="2.71008" transform="matrix(-0.748986 0.662586 -0.622737 -0.782431 1153.48 383.363)" fill="#187697"/>
<rect width="13.5504" height="2.68534" transform="matrix(-0.622737 0.782431 -0.748986 -0.662586 1113.45 382.34)" fill="#187697"/>
<rect width="13.6656" height="2.66188" transform="matrix(-0.480319 0.877094 -0.854202 -0.519941 1073.26 381.45)" fill="#187697"/>
<rect width="13.7588" height="2.64261" transform="matrix(-0.326332 0.945255 -0.933624 -0.358255 1032.93 380.722)" fill="#187697"/>
<rect width="13.8193" height="2.62995" transform="matrix(-0.164958 0.986301 -0.983156 -0.182766 992.504 380.177)" fill="#187697"/>
<rect x="952.213" y="379.523" width="14.2243" height="2.56991" transform="rotate(90 952.213 379.523)" fill="#187697"/>
<rect x="1312" y="357.848" width="13.492" height="2.7094" transform="rotate(180 1312 357.848)" fill="#187697"/>
<rect width="13.1498" height="2.76386" transform="matrix(-0.983156 0.182767 -0.164958 -0.986301 1272.45 356.464)" fill="#187697"/>
<rect width="13.213" height="2.75176" transform="matrix(-0.933624 0.358256 -0.326333 -0.945255 1232.99 355.236)" fill="#187697"/>
<rect width="13.3094" height="2.73312" transform="matrix(-0.854202 0.519942 -0.48032 -0.877093 1193.33 354.041)" fill="#187697"/>
<rect width="13.4267" height="2.71008" transform="matrix(-0.748986 0.662586 -0.622737 -0.782431 1153.48 352.914)" fill="#187697"/>
<rect width="13.5504" height="2.68534" transform="matrix(-0.622737 0.782431 -0.748986 -0.662586 1113.45 351.891)" fill="#187697"/>
<rect width="13.6656" height="2.66188" transform="matrix(-0.480319 0.877094 -0.854202 -0.519941 1073.26 351.001)" fill="#187697"/>
<rect width="13.7588" height="2.64261" transform="matrix(-0.326332 0.945255 -0.933624 -0.358255 1032.93 350.273)" fill="#187697"/>
<rect width="13.8193" height="2.62995" transform="matrix(-0.164958 0.986301 -0.983156 -0.182766 992.504 349.728)" fill="#187697"/>
<rect x="952.213" y="349.72" width="13.547" height="2.56991" transform="rotate(90 952.213 349.72)" fill="#187697"/>
<rect x="1312" y="327.368" width="13.492" height="2.7094" transform="rotate(180 1312 327.368)" fill="#187697"/>
<rect width="13.1498" height="2.76386" transform="matrix(-0.983156 0.182767 -0.164958 -0.986301 1272.45 326.015)" fill="#187697"/>
<rect width="13.213" height="2.75176" transform="matrix(-0.933624 0.358256 -0.326333 -0.945255 1232.99 324.788)" fill="#187697"/>
<rect width="13.3094" height="2.73312" transform="matrix(-0.854202 0.519942 -0.48032 -0.877093 1193.33 323.593)" fill="#187697"/>
<rect width="13.4267" height="2.71008" transform="matrix(-0.748986 0.662586 -0.622737 -0.782431 1153.48 322.466)" fill="#187697"/>
<rect width="13.5504" height="2.68534" transform="matrix(-0.622737 0.782431 -0.748986 -0.662586 1113.45 321.443)" fill="#187697"/>
<rect width="13.6656" height="2.66188" transform="matrix(-0.480319 0.877094 -0.854202 -0.519941 1073.26 320.553)" fill="#187697"/>
<rect width="13.7588" height="2.64261" transform="matrix(-0.326332 0.945255 -0.933624 -0.358255 1032.93 319.825)" fill="#187697"/>
<rect width="13.8193" height="2.62995" transform="matrix(-0.164958 0.986301 -0.983156 -0.182766 992.504 319.279)" fill="#187697"/>
<rect x="952.213" y="319.239" width="13.547" height="2.56991" transform="rotate(90 952.213 319.239)" fill="#187697"/>
<rect x="1312" y="296.887" width="13.492" height="2.7094" transform="rotate(180 1312 296.887)" fill="#187697"/>
<rect width="13.1498" height="2.76386" transform="matrix(-0.983156 0.182767 -0.164958 -0.986301 1272.45 295.567)" fill="#187697"/>
<rect width="13.213" height="2.75176" transform="matrix(-0.933624 0.358256 -0.326333 -0.945255 1232.99 294.339)" fill="#187697"/>
<rect width="13.3094" height="2.73312" transform="matrix(-0.854202 0.519942 -0.48032 -0.877093 1193.33 293.144)" fill="#187697"/>
<rect width="13.4267" height="2.71008" transform="matrix(-0.748986 0.662586 -0.622737 -0.782431 1153.48 292.017)" fill="#187697"/>
<rect width="13.5504" height="2.68534" transform="matrix(-0.622737 0.782431 -0.748986 -0.662586 1113.45 290.994)" fill="#187697"/>
<rect width="13.6656" height="2.66188" transform="matrix(-0.480319 0.877094 -0.854202 -0.519941 1073.26 290.105)" fill="#187697"/>
<rect width="13.7588" height="2.64261" transform="matrix(-0.326332 0.945255 -0.933624 -0.358255 1032.93 289.376)" fill="#187697"/>
<rect width="13.8193" height="2.62995" transform="matrix(-0.164958 0.986301 -0.983156 -0.182766 992.504 288.831)" fill="#187697"/>
<rect x="952.213" y="288.759" width="13.547" height="2.56991" transform="rotate(90 952.213 288.759)" fill="#187697"/>
<rect x="1312" y="266.406" width="13.492" height="3.38675" transform="rotate(180 1312 266.406)" fill="#187697"/>
<rect width="13.1498" height="3.31663" transform="matrix(-0.983156 0.182767 -0.164958 -0.986301 1272.49 265.114)" fill="#187697"/>
<rect width="13.213" height="3.30211" transform="matrix(-0.933624 0.358256 -0.326333 -0.945255 1233.08 263.874)" fill="#187697"/>
<rect width="13.3094" height="3.27974" transform="matrix(-0.854202 0.519942 -0.48032 -0.877093 1193.46 262.658)" fill="#187697"/>
<rect width="13.4267" height="3.25209" transform="matrix(-0.748986 0.662586 -0.622737 -0.782431 1153.64 261.505)" fill="#187697"/>
<rect width="13.5504" height="3.22241" transform="matrix(-0.622737 0.782431 -0.748986 -0.662586 1113.65 260.447)" fill="#187697"/>
<rect width="13.6656" height="3.19426" transform="matrix(-0.480319 0.877094 -0.854202 -0.519941 1073.48 259.518)" fill="#187697"/>
<rect width="13.7588" height="3.17113" transform="matrix(-0.326332 0.945255 -0.933624 -0.358255 1033.18 258.745)" fill="#187697"/>
<rect width="13.8193" height="3.15594" transform="matrix(-0.164958 0.986301 -0.983156 -0.182766 992.763 258.154)" fill="#187697"/>
<rect x="952.213" y="257.601" width="14.2243" height="3.21239" transform="rotate(90 952.213 257.601)" fill="#187697"/>
<rect x="1312" y="235.248" width="13.492" height="2.7094" transform="rotate(180 1312 235.248)" fill="#187697"/>
<rect width="13.1498" height="2.76386" transform="matrix(-0.983156 0.182767 -0.164958 -0.986301 1272.45 234.116)" fill="#187697"/>
<rect width="13.213" height="2.75176" transform="matrix(-0.933624 0.358256 -0.326333 -0.945255 1232.99 232.888)" fill="#187697"/>
<rect width="13.3094" height="2.73312" transform="matrix(-0.854202 0.519942 -0.48032 -0.877093 1193.33 231.693)" fill="#187697"/>
<rect width="13.4267" height="2.71008" transform="matrix(-0.748986 0.662586 -0.622737 -0.782431 1153.48 230.567)" fill="#187697"/>
<rect width="13.5504" height="2.68534" transform="matrix(-0.622737 0.782431 -0.748986 -0.662586 1113.45 229.544)" fill="#187697"/>
<rect width="13.6656" height="2.66188" transform="matrix(-0.480319 0.877094 -0.854202 -0.519941 1073.26 228.654)" fill="#187697"/>
<rect width="13.7588" height="2.64261" transform="matrix(-0.326332 0.945255 -0.933624 -0.358255 1032.93 227.925)" fill="#187697"/>
<rect width="13.8193" height="2.62995" transform="matrix(-0.164958 0.986301 -0.983156 -0.182766 992.504 227.38)" fill="#187697"/>
<rect x="952.213" y="227.12" width="13.547" height="2.56991" transform="rotate(90 952.213 227.12)" fill="#187697"/>
<rect x="1312" y="204.767" width="13.492" height="3.38675" transform="rotate(180 1312 204.767)" fill="#187697"/>
<rect width="13.1498" height="3.31663" transform="matrix(-0.983156 0.182767 -0.164958 -0.986301 1272.49 203.664)" fill="#187697"/>
<rect width="13.213" height="3.30211" transform="matrix(-0.933624 0.358256 -0.326333 -0.945255 1233.08 202.424)" fill="#187697"/>
<rect width="13.3094" height="3.27974" transform="matrix(-0.854202 0.519942 -0.48032 -0.877093 1193.46 201.208)" fill="#187697"/>
<rect width="13.4267" height="3.25209" transform="matrix(-0.748986 0.662586 -0.622737 -0.782431 1153.64 200.053)" fill="#187697"/>
<rect width="13.5504" height="3.22241" transform="matrix(-0.622737 0.782431 -0.748986 -0.662586 1113.65 198.996)" fill="#187697"/>
<rect width="13.6656" height="3.19426" transform="matrix(-0.480319 0.877094 -0.854202 -0.519941 1073.48 198.067)" fill="#187697"/>
<rect width="13.7588" height="3.17113" transform="matrix(-0.326332 0.945255 -0.933624 -0.358255 1033.18 197.295)" fill="#187697"/>
<rect width="13.8193" height="3.15594" transform="matrix(-0.164958 0.986301 -0.983156 -0.182766 992.763 196.703)" fill="#187697"/>
<rect x="952.213" y="196.639" width="13.547" height="3.21239" transform="rotate(90 952.213 196.639)" fill="#187697"/>
<rect x="1312" y="173.609" width="13.492" height="2.7094" transform="rotate(180 1312 173.609)" fill="#187697"/>
<rect width="13.1498" height="2.76386" transform="matrix(-0.983156 0.182767 -0.164958 -0.986301 1272.45 172.666)" fill="#187697"/>
<rect width="13.213" height="2.75176" transform="matrix(-0.933624 0.358256 -0.326333 -0.945255 1232.99 171.438)" fill="#187697"/>
<rect width="13.3094" height="2.73312" transform="matrix(-0.854202 0.519942 -0.48032 -0.877093 1193.33 170.243)" fill="#187697"/>
<rect width="13.4267" height="2.71008" transform="matrix(-0.748986 0.662586 -0.622737 -0.782431 1153.48 169.116)" fill="#187697"/>
<rect width="13.5504" height="2.68534" transform="matrix(-0.622737 0.782431 -0.748986 -0.662586 1113.45 168.093)" fill="#187697"/>
<rect width="13.6656" height="2.66188" transform="matrix(-0.480319 0.877094 -0.854202 -0.519941 1073.26 167.203)" fill="#187697"/>
<rect width="13.7588" height="2.64261" transform="matrix(-0.326332 0.945255 -0.933624 -0.358255 1032.93 166.475)" fill="#187697"/>
<rect width="13.8193" height="2.62995" transform="matrix(-0.164958 0.986301 -0.983156 -0.182766 992.504 165.93)" fill="#187697"/>
<rect x="952.213" y="165.481" width="14.2243" height="2.56991" transform="rotate(90 952.213 165.481)" fill="#187697"/>
<rect x="1312" y="143.129" width="13.492" height="2.7094" transform="rotate(180 1312 143.129)" fill="#187697"/>
<rect width="13.1498" height="2.76386" transform="matrix(-0.983156 0.182767 -0.164958 -0.986301 1272.45 142.217)" fill="#187697"/>
<rect width="13.213" height="2.75176" transform="matrix(-0.933624 0.358256 -0.326333 -0.945255 1232.99 140.99)" fill="#187697"/>
<rect width="13.3094" height="2.73312" transform="matrix(-0.854202 0.519942 -0.48032 -0.877093 1193.33 139.794)" fill="#187697"/>
<rect width="13.4267" height="2.71008" transform="matrix(-0.748986 0.662586 -0.622737 -0.782431 1153.48 138.668)" fill="#187697"/>
<rect width="13.5504" height="2.68534" transform="matrix(-0.622737 0.782431 -0.748986 -0.662586 1113.45 137.644)" fill="#187697"/>
<rect width="13.6656" height="2.66188" transform="matrix(-0.480319 0.877094 -0.854202 -0.519941 1073.26 136.755)" fill="#187697"/>
<rect width="13.7588" height="2.64261" transform="matrix(-0.326332 0.945255 -0.933624 -0.358255 1032.93 136.026)" fill="#187697"/>
<rect width="13.8193" height="2.62995" transform="matrix(-0.164958 0.986301 -0.983156 -0.182766 992.504 135.481)" fill="#187697"/>
<rect x="952.213" y="135" width="14.2243" height="2.56991" transform="rotate(90 952.213 135)" fill="#187697"/>
</g>
</g>
</svg>
