<svg width="42" height="33" viewBox="0 0 42 33" fill="none" xmlns="http://www.w3.org/2000/svg">
<path d="M41.1207 3.90576C39.613 4.56702 38.0065 5.00533 36.3315 5.21815C38.0546 4.18952 39.3698 2.5731 39.9881 0.624783C38.3815 1.58247 36.6077 2.25894 34.7174 2.63644C33.1919 1.01242 31.0178 0.0065918 28.646 0.0065918C24.0443 0.0065918 20.3396 3.74108 20.3396 8.31924C20.3396 8.97797 20.3954 9.61136 20.5322 10.2144C13.622 9.87739 7.50757 6.56601 3.4 1.52167C2.68288 2.76565 2.26224 4.18952 2.26224 5.72233C2.26224 8.60047 3.74462 11.1518 5.95424 12.6288C4.61884 12.6035 3.30877 12.2159 2.19889 11.6053C2.19889 11.6306 2.19889 11.6636 2.19889 11.6965C2.19889 15.735 5.08002 19.0895 8.85818 19.8622C8.18161 20.0471 7.44422 20.1358 6.67896 20.1358C6.14682 20.1358 5.60962 20.1054 5.10536 19.9939C6.1823 23.285 9.23827 25.7046 12.872 25.7831C10.0441 27.995 6.45344 29.3276 2.56632 29.3276C1.88468 29.3276 1.23091 29.2972 0.577148 29.2136C4.25901 31.5876 8.62252 32.943 13.3281 32.943C28.6232 32.943 36.9853 20.2752 36.9853 9.29467C36.9853 8.9273 36.9726 8.5726 36.9549 8.22043C38.6045 7.04992 39.9906 5.58805 41.1207 3.90576Z" fill="white"/>
</svg>
