<svg width="36" height="36" viewBox="0 0 36 36" fill="none" xmlns="http://www.w3.org/2000/svg">
<path d="M30.6562 0H11.6717C11.6717 0 11.6717 0 11.6716 0C8.76396 0.000139683 6.39844 2.34989 6.39844 5.23811C6.39844 5.96446 6.39844 24.4857 6.39844 25.2128H1.05469C0.472219 25.2128 0 25.6818 0 26.2604V27.308C0 29.6395 1.97142 31.4984 4.28892 31.4985H4.28899H16.9453V34.7112C16.9453 35.1365 17.2042 35.5196 17.6004 35.6808C17.9967 35.8419 18.4517 35.7491 18.7519 35.4459L22.2188 31.9449L25.6856 35.4459C25.986 35.7493 26.441 35.8418 26.8371 35.6808C27.2334 35.5196 27.4922 35.1365 27.4922 34.7112V31.3931C29.8963 30.9065 31.7109 28.7901 31.7109 26.2604V6.28574H34.9453C35.225 6.28574 35.4933 6.17532 35.691 5.97885C35.8888 5.78239 36 5.51601 36 5.23811C36 2.3422 33.5718 0 30.6562 0ZM4.28906 29.4033C3.1076 29.4033 2.10938 28.4438 2.10938 27.308H6.39844C6.39844 28.4633 5.45217 29.4033 4.28906 29.4033ZM25.3828 32.1522L22.9707 29.7162C22.7724 29.5161 22.5015 29.4033 22.2188 29.4033C21.936 29.4033 21.6651 29.5161 21.4668 29.7162L19.0547 32.1522V26.2575C19.9367 26.9167 21.0325 27.308 22.2188 27.308C23.405 27.308 24.5008 26.9167 25.3828 26.2575V32.1522ZM22.2188 25.2128C20.4741 25.2128 19.0547 23.8029 19.0547 22.0699C19.0547 20.3369 20.4741 18.927 22.2188 18.927C23.9634 18.927 25.3828 20.3369 25.3828 22.0699C25.3828 23.8029 23.9634 25.2128 22.2188 25.2128ZM29.6016 26.2604C29.6016 27.6262 28.7198 28.7906 27.4922 29.2231V22.0699C27.4922 19.1816 25.1265 16.8318 22.2188 16.8318H13.7812C13.1988 16.8318 12.7266 17.3009 12.7266 17.8794C12.7266 18.458 13.1988 18.9201 13.7812 18.9201H18.0029C17.3393 19.7962 16.9453 20.8916 16.9453 22.0699V29.4033H7.94025C8.30046 28.7864 8.50781 28.071 8.50781 27.308C8.50781 27.1614 8.50781 5.57426 8.50781 5.23811C8.50781 3.50514 9.92721 2.09525 11.6719 2.09525C13.4165 2.09525 14.8359 3.50514 14.8359 5.23811C14.8359 5.81668 15.3082 6.28574 15.8906 6.28574H29.6016V26.2604ZM16.8392 4.19049C16.6804 3.41679 16.3493 2.70461 15.8877 2.09525H30.6562C32.0337 2.09525 33.2431 2.98349 33.6983 4.19049H16.8392Z" fill="#101928"/>
<path d="M24.3291 12.5718H13.7822C13.1998 12.5718 12.7275 13.0409 12.7275 13.6196C12.7275 14.1982 13.1998 14.6674 13.7822 14.6674H24.3291C24.9116 14.6674 25.3838 14.1982 25.3838 13.6196C25.3838 13.0409 24.9116 12.5718 24.3291 12.5718Z" fill="#101928"/>
<path d="M24.3291 8.3811H13.7822C13.1998 8.3811 12.7275 8.85024 12.7275 9.4289C12.7275 10.0076 13.1998 10.4767 13.7822 10.4767H24.3291C24.9116 10.4767 25.3838 10.0076 25.3838 9.4289C25.3838 8.85024 24.9116 8.3811 24.3291 8.3811Z" fill="#101928"/>
</svg>
